<svg id="Temperature--Streamline-Carbon" xmlns="http://www.w3.org/2000/svg" viewBox="0 0 16 16" height="16" width="16"><desc>Temperature Streamline Icon: https://streamlinehq.com</desc><defs></defs><title>temperature</title><path d="M6.5 8.63V3a2 2 0 0 0 -4 0v5.63a3.5 3.5 0 1 0 4 0ZM4.5 2a1 1 0 0 1 1 1v3.5H3.5V3a1 1 0 0 1 1 -1Zm0 12a2.5 2.5 0 0 1 -1.25 -4.665l0.25 -0.14V7.5h2v1.695l0.25 0.14A2.5 2.5 0 0 1 4.5 14Z" fill="#000000" stroke-width="0.5"></path><path d="M10 2h5v1H10Z" fill="#000000" stroke-width="0.5"></path><path d="M10 5h3.5v1h-3.5Z" fill="#000000" stroke-width="0.5"></path><path d="M10 8h5v1H10Z" fill="#000000" stroke-width="0.5"></path><path d="M10 11h3.5v1h-3.5Z" fill="#000000" stroke-width="0.5"></path><path id="_Transparent_Rectangle_" d="M0 0h16v16H0Z" fill="none" stroke-width="0.5"></path></svg>